<svg preserveAspectRatio="none" overflow="visible" style="display: block;" width="12" height="12" viewBox="0 0 12 12" fill="none" xmlns="http://www.w3.org/2000/svg">
<g id="copy">
<path id="Vector" d="M8 6.45V8.55C8 10.3 7.3 11 5.55 11H3.45C1.7 11 1 10.3 1 8.55V6.45C1 4.7 1.7 4 3.45 4H5.55C7.3 4 8 4.7 8 6.45Z" stroke="#A1A1AA" stroke-linecap="round" stroke-linejoin="round"/>
<path id="Vector_2" d="M11 3.45V5.55C11 7.3 10.3 8 8.55 8H8V6.45C8 4.7 7.3 4 5.55 4H4V3.45C4 1.7 4.7 1 6.45 1H8.55C10.3 1 11 1.7 11 3.45Z" stroke="#A1A1AA" stroke-linecap="round" stroke-linejoin="round"/>
<g id="Vector_3" opacity="0">
</g>
</g>
</svg>
